<svg width="121" height="36" fill="none" xmlns="http://www.w3.org/2000/svg"><path d="M0 4.8C0 2.149 2.141 0 4.783 0h111.434C118.859 0 121 2.149 121 4.8v26.4c0 2.651-2.141 4.8-4.783 4.8H4.783C2.14 36 0 33.851 0 31.2V4.8z" fill="#000"/><path fill-rule="evenodd" clip-rule="evenodd" d="M0 31.2V4.8C0 2.149 2.141 0 4.783 0h111.434C118.859 0 121 2.149 121 4.8v26.4c0 2.651-2.141 4.8-4.783 4.8H4.783C2.14 36 0 33.851 0 31.2zm.717 0V4.8c0-2.253 1.82-4.08 4.066-4.08h111.434a4.073 4.073 0 014.066 4.08v26.4c0 2.253-1.82 4.08-4.066 4.08H4.783A4.073 4.073 0 01.717 31.2z" fill="#fff" fill-opacity=".3"/><path d="M61.31 19.558c-2.154 0-3.933 1.687-3.933 4.001 0 2.296 1.76 4.002 3.933 4.002 2.172 0 3.932-1.688 3.932-4.002s-1.76-4.002-3.932-4.002zm0 6.41c-1.18 0-2.21-1.005-2.21-2.427 0-1.441 1.03-2.427 2.21-2.427 1.179 0 2.209.986 2.209 2.427 0 1.422-1.03 2.428-2.21 2.428zm-8.558-6.41c-2.172 0-3.933 1.687-3.933 4.001 0 2.296 1.761 4.002 3.933 4.002 2.172 0 3.932-1.688 3.932-4.002s-1.76-4.002-3.932-4.002zm0 6.41c-1.18 0-2.21-1.005-2.21-2.427 0-1.441 1.03-2.427 2.21-2.427s2.21.986 2.21 2.427c0 1.422-1.012 2.428-2.21 2.428zM42.584 20.79v1.688h3.97c-.113.948-.43 1.65-.9 2.125-.58.587-1.478 1.232-3.07 1.232-2.454 0-4.344-2.01-4.344-4.495 0-2.484 1.891-4.532 4.344-4.532 1.329 0 2.285.53 2.996 1.214l1.18-1.196c-.993-.966-2.323-1.706-4.176-1.706-3.352 0-6.162 2.787-6.162 6.183 0 3.395 2.81 6.183 6.162 6.183 1.816 0 3.165-.607 4.25-1.745 1.105-1.12 1.442-2.694 1.442-3.965a5.84 5.84 0 00-.093-1.062l-5.6.076zm41.608 1.31c-.318-.892-1.329-2.541-3.352-2.541-2.023 0-3.69 1.612-3.69 4.001 0 2.238 1.667 4.002 3.877 4.002 1.798 0 2.828-1.119 3.258-1.764l-1.328-.91c-.45.664-1.05 1.1-1.93 1.1-.88 0-1.497-.399-1.891-1.214l5.224-2.22-.168-.454zm-5.318 1.347c-.037-1.537 1.18-2.333 2.04-2.333.694 0 1.256.341 1.461.854l-3.5 1.48zm-4.25 3.85h1.722V15.575h-1.723v11.72zm-2.809-6.847h-.056c-.393-.475-1.123-.892-2.06-.892-1.966 0-3.745 1.765-3.745 4.002 0 2.238 1.797 3.983 3.745 3.983.936 0 1.666-.417 2.06-.91h.056v.569c0 1.537-.806 2.351-2.097 2.351-1.05 0-1.705-.777-1.967-1.422l-1.497.645c.43 1.062 1.573 2.37 3.464 2.37 2.022 0 3.726-1.213 3.726-4.153v-7.188h-1.629v.645zm-1.966 5.52c-1.18 0-2.172-1.006-2.172-2.409 0-1.402.993-2.427 2.172-2.427 1.161 0 2.097 1.024 2.097 2.427 0 1.384-.937 2.409-2.097 2.409zm22.377-10.394h-4.12v11.72h1.723v-4.438h2.397c1.91 0 3.782-1.404 3.782-3.64 0-2.239-1.872-3.642-3.782-3.642zm.055 5.652h-2.434v-4.021h2.434c1.274 0 2.023 1.08 2.023 2.01-.018.91-.748 2.011-2.023 2.011zm10.6-1.688c-1.236 0-2.528.55-3.052 1.801l1.517.646c.337-.646.936-.854 1.573-.854.899 0 1.798.55 1.816 1.517v.114c-.318-.19-.973-.456-1.797-.456-1.648 0-3.315.93-3.315 2.637 0 1.575 1.348 2.58 2.846 2.58 1.162 0 1.798-.532 2.191-1.157h.056v.91h1.666v-4.495c-.018-2.067-1.535-3.243-3.501-3.243zm-.206 6.41c-.562 0-1.348-.284-1.348-.985 0-.91.973-1.252 1.816-1.252.748 0 1.104.17 1.573.398a2.082 2.082 0 01-2.041 1.84zm9.719-6.144l-1.967 5.064h-.056l-2.04-5.064h-1.854l3.071 7.093-1.742 3.964h1.798l4.699-11.057h-1.91.001zm-15.43 7.49h1.723v-11.72h-1.723v11.72zM41.629 10.08v1.741h-.717V10.8h-3.294v1.021h-.716v-1.74h.535c.179-.251.31-.612.395-1.082.085-.475.127-.99.127-1.546V5.988h3.14v4.093h.53zm-1.28 0V6.708h-1.646v.874c0 .502-.04.968-.12 1.398a3.89 3.89 0 01-.349 1.102h2.116zm4.321.828a2.48 2.48 0 01-1.266-.33 2.445 2.445 0 01-.898-.914 2.57 2.57 0 01-.32-1.27c0-.461.106-.882.32-1.263a2.445 2.445 0 012.163-1.25 2.444 2.444 0 012.156 1.25c.219.38.328.802.328 1.263 0 .462-.11.885-.328 1.27a2.39 2.39 0 01-.89.914c-.38.22-.802.33-1.266.33zm0-.72c.316 0 .606-.076.87-.228.263-.152.47-.363.622-.632.152-.273.228-.584.228-.934 0-.35-.076-.658-.228-.927a1.645 1.645 0 00-.622-.638 1.708 1.708 0 00-.87-.229 1.694 1.694 0 00-1.5.867 1.855 1.855 0 00-.229.927c0 .35.076.661.228.934a1.708 1.708 0 001.5.86zm5.538.72c-.465 0-.889-.11-1.272-.33a2.38 2.38 0 01-.904-.907 2.54 2.54 0 01-.328-1.277c0-.466.109-.891.328-1.277a2.38 2.38 0 01.904-.907c.383-.22.807-.329 1.272-.329.361 0 .69.067.984.202.299.134.563.329.79.584l-.535.518a1.613 1.613 0 00-.55-.437c-.2-.099-.43-.148-.69-.148-.32 0-.615.074-.883.222a1.64 1.64 0 00-.63.631 1.837 1.837 0 00-.234.941c0 .359.078.674.235.948.156.269.365.477.629.625.268.148.562.221.884.221.535 0 .99-.223 1.366-.671l.542.524a2.445 2.445 0 01-1.908.867zm3.716-4.201h-1.339v-.719h3.428v.72h-1.339V10.8h-.75V6.707zm3.331 4.2a.933.933 0 01-.422-.087v-.732c.147.08.281.12.402.12.12 0 .216-.022.288-.067a.632.632 0 00.194-.268l.167-.35-1.593-3.535h.837l1.118 2.668h.04l1.125-2.668h.837l-1.835 4.046c-.134.3-.297.522-.489.665a1.09 1.09 0 01-.67.208zm3.643-4.919h3.569V10.8h-.75V6.707h-2.07V10.8h-.75V5.988zm4.662 0h.75v1.996h2.223V5.988h.743V10.8h-.743V8.697H66.31V10.8h-.75V5.988zm6.99 4.92a2.48 2.48 0 01-1.266-.33 2.447 2.447 0 01-.897-.914 2.569 2.569 0 01-.321-1.27c0-.461.107-.882.321-1.263a2.446 2.446 0 012.163-1.25 2.443 2.443 0 012.156 1.25c.219.38.328.802.328 1.263 0 .462-.11.885-.328 1.27a2.39 2.39 0 01-.89.914c-.38.22-.802.33-1.266.33zm0-.72c.317 0 .607-.076.87-.228.264-.152.471-.363.623-.632a1.89 1.89 0 00.228-.934c0-.35-.076-.658-.228-.927a1.641 1.641 0 00-.623-.638 1.706 1.706 0 00-.87-.229 1.694 1.694 0 00-1.5.867 1.855 1.855 0 00-.228.927c0 .35.077.661.228.934a1.708 1.708 0 001.5.86zm4.91-4.2h1.802c.254 0 .488.056.703.168.218.112.392.267.522.464s.194.414.194.652a1.104 1.104 0 01-.643 1.015v.04c.241.085.435.226.583.423.151.197.227.428.227.692 0 .265-.069.5-.207.706a1.374 1.374 0 01-.55.484 1.675 1.675 0 01-.75.168h-1.88V5.988zm1.768 2.016a.683.683 0 00.516-.201.638.638 0 00.006-.92.644.644 0 00-.495-.202H78.21v1.323h1.018zm.114 2.097a.706.706 0 00.542-.215.695.695 0 00-.007-.995c-.138-.143-.325-.215-.562-.215H78.21v1.425h1.132z" fill="#fff"/><path d="M25.513 21.86c2.865-1.594 5.037-2.808 5.225-2.902.598-.323 1.217-1.176 0-1.84-.394-.208-2.51-1.384-5.225-2.901l-3.763 3.85 3.763 3.793z" fill="#FFD900"/><path d="M21.75 18.067L9.765 30.3c.281.038.599-.038.973-.246.787-.436 9.12-5.045 14.775-8.193l-3.764-3.794z" fill="#F43249"/><path d="M21.75 18.067l3.763-3.832s-13.931-7.7-14.775-8.155a1.441 1.441 0 00-.991-.19L21.75 18.066z" fill="#00EE76"/><path d="M21.75 18.067L9.747 5.89c-.488.114-.9.55-.9 1.44v21.53c0 .816.32 1.403.918 1.46L21.75 18.066z" fill="#00D3FF"/></svg>