<svg width="48" height="51" fill="none" xmlns="http://www.w3.org/2000/svg"><path d="M29.18 49.49c-.09 0-.134.045-.134.137v.137c0 .092.045.138.134.138h17.668c.134 0 .201-.046.201-.138v-.137c0-.092-.067-.138-.2-.138h-2.075c-1.383 0-2.365-.252-2.945-.756-.535-.504-.982-1.328-1.339-2.474a541.7 541.7 0 01-6.224-21.17A2426.683 2426.683 0 0128.578 3.78c-.268-.962-.268-1.764 0-2.405.267-.642.892-.963 1.873-.963h4.016c.134 0 .2-.068.2-.206V.137c0-.091-.066-.137-.2-.137H7.697c-.179 0-.268.046-.268.137v.07c0 .137.089.205.268.205h4.952c.892 0 1.339.413 1.339 1.238 0 .366-.045.733-.134 1.1-.09.32-.246.801-.469 1.443a328.984 328.984 0 01-1.472 3.78 814.32 814.32 0 01-1.673 4.4 812.404 812.404 0 00-1.673 4.398c-.536 1.421-1.004 2.658-1.406 3.712a222.976 222.976 0 01-2.61 6.599 138.82 138.82 0 00-2.276 6.186 68.76 68.76 0 00-1.673 5.499C.201 40.462 0 42.02 0 43.44c0 2.428.58 4.193 1.74 5.292 1.16 1.1 2.61 1.65 4.35 1.65 1.428 0 2.722-.39 3.882-1.169 1.16-.824 2.253-1.832 3.28-3.024a42.91 42.91 0 003.011-3.918 46.538 46.538 0 013.012-3.918c1.026-1.237 2.097-2.245 3.212-3.024 1.16-.825 2.41-1.237 3.748-1.237 2.142 0 3.793.641 4.953 1.924a12.016 12.016 0 012.543 4.4c.357 1.008.624 1.97.803 2.886.223.917.446 1.742.67 2.475.088.412.11.848.066 1.306 0 .458-.134.87-.401 1.237-.224.32-.625.596-1.205.825-.535.229-1.272.343-2.209.343H29.18zM11.378 21.582c2.543 0 4.394.596 5.554 1.787 1.16 1.146 1.74 3.024 1.74 5.636v7.149a46.15 46.15 0 00-2.877 2.337 54.351 54.351 0 01-2.744 2.268 19.508 19.508 0 01-2.61 1.718c-.848.413-1.696.62-2.544.62-1.249 0-2.387-.39-3.413-1.17-1.026-.824-1.54-2.176-1.54-4.055 0-1.145.18-2.451.536-3.918a87.178 87.178 0 011.34-4.534 145.25 145.25 0 011.606-4.33 239.24 239.24 0 001.338-3.506h3.614zm2.61-16.634c.535-1.375 1.204-2.268 2.007-2.68a6.821 6.821 0 012.677-.688v11.96c0 2.703-.557 4.651-1.673 5.842-1.115 1.192-2.99 1.788-5.621 1.788h-3.48l2.007-5.362a345.27 345.27 0 011.874-5.018 105.91 105.91 0 001.405-3.849c.402-1.054.67-1.718.804-1.993zM30.719 29.35c.09.32.179.71.268 1.169.09.458.134.893.134 1.306.044.412.022.801-.067 1.168-.045.32-.179.55-.402.687-.089.046-.245.07-.468.07-.446 0-.982-.093-1.606-.276-.58-.229-1.384-.343-2.41-.343-1.25 0-2.454.274-3.614.824a21.945 21.945 0 00-3.48 1.925v-6.874c0-2.657.535-4.56 1.606-5.705 1.116-1.145 2.99-1.718 5.622-1.718h2.343c.356 1.283.691 2.589 1.003 3.918l1.071 3.85zm-4.417-8.18c-2.543 0-4.395-.618-5.555-1.855-1.115-1.238-1.673-3.162-1.673-5.774V1.58c1.562.046 2.722.39 3.48 1.031.759.641 1.294 1.512 1.606 2.612.491 1.741 1.116 4.01 1.874 6.805.759 2.795 1.584 5.842 2.477 9.142h-2.209z" fill="#212529"/></svg>